<?xml version="1.0" encoding="utf-8"?>
<!-- Generator: Adobe Illustrator 23.0.1, SVG Export Plug-In . SVG Version: 6.00 Build 0)  -->
<svg version="1.1" id="Layer_1" xmlns="http://www.w3.org/2000/svg" xmlns:xlink="http://www.w3.org/1999/xlink" x="0px" y="0px"
	 viewBox="0 0 764.4 179.5" style="enable-background:new 0 0 764.4 179.5;" xml:space="preserve">
<metadata><?xpacket begin="﻿" id="W5M0MpCehiHzreSzNTczkc9d"?>
<x:xmpmeta xmlns:x="adobe:ns:meta/" x:xmptk="XMP Core 5.6.0">
   <rdf:RDF xmlns:rdf="http://www.w3.org/1999/02/22-rdf-syntax-ns#">
      <rdf:Description rdf:about=""
            xmlns:ExtensisFontSense="http://www.extensis.com/meta/FontSense/">
         <ExtensisFontSense:slug>
            <rdf:Bag>
               <rdf:li>
                  <rdf:Description>
                     <ExtensisFontSense:Checksum>3627764845</ExtensisFontSense:Checksum>
                     <ExtensisFontSense:Family>Serpentine Sans ICG</ExtensisFontSense:Family>
                     <ExtensisFontSense:FontKind>TrueType</ExtensisFontSense:FontKind>
                     <ExtensisFontSense:FontSense_1.2_Checksum>3627764845</ExtensisFontSense:FontSense_1.2_Checksum>
                     <ExtensisFontSense:Foundry>Image Club Graphics</ExtensisFontSense:Foundry>
                     <ExtensisFontSense:OutlineFileSize>0</ExtensisFontSense:OutlineFileSize>
                     <ExtensisFontSense:PostScriptName>SerpentineSansICGOblique</ExtensisFontSense:PostScriptName>
                     <ExtensisFontSense:Version>4.1</ExtensisFontSense:Version>
                  </rdf:Description>
               </rdf:li>
            </rdf:Bag>
         </ExtensisFontSense:slug>
      </rdf:Description>
   </rdf:RDF>
</x:xmpmeta>
                                                                                                    
                                                                                                    
                                                                                                    
                                                                                                    
                                                                                                    
                                                                                                    
                                                                                                    
                                                                                                    
                                                                                                    
                                                                                                    
                                                                                                    
                                                                                                    
                                                                                                    
                                                                                                    
                                                                                                    
                                                                                                    
                                                                                                    
                                                                                                    
                                                                                                    
                                                                                                    
                           
<?xpacket end="w"?></metadata>
<style type="text/css">
	.Arched_x0020_Green{fill:url(#SVGID_1_);stroke:#FFFFFF;stroke-width:0.25;stroke-miterlimit:1;}
	.st0{fill:url(#SVGID_2_);}
	.st1{fill:#E0E2E2;}
	.st2{fill:url(#SVGID_3_);}
	.st3{fill:#E0E0E0;}
</style>
<linearGradient id="SVGID_1_" gradientUnits="userSpaceOnUse" x1="0" y1="288" x2="0.7071" y2="287.2929">
	<stop  offset="0" style="stop-color:#20AC4B"/>
	<stop  offset="0.9831" style="stop-color:#19361A"/>
</linearGradient>
<g>
	<g>
		<g>
			<linearGradient id="SVGID_2_" gradientUnits="userSpaceOnUse" x1="111.3081" y1="28.1477" x2="196.8592" y2="137.6481">
				<stop  offset="7.361960e-02" style="stop-color:#007F44"/>
				<stop  offset="1" style="stop-color:#005027"/>
			</linearGradient>
			<path class="st0" d="M146.9,19.1c-19-1.7-35.3,5.2-43.2,17c-12.8,19.1,22.6,41.2,42.3,59c14.1,12.7,21.9,28.6,12.1,47.2
				c-4.4,8.4-11.5,14.9-19.9,19.7c48.2-7.6,84.2-37,84.2-72.2C222.5,56.7,190.8,28.7,146.9,19.1z"/>
			<path class="st1" d="M138.7,164.1l-1.4-3.9c8.7-5,15.1-11.4,19.1-18.9c8.1-15.4,4.1-30.4-11.7-44.7c-3.7-3.3-7.9-6.8-12.4-10.5
				C112.7,70.2,90.5,52,102,35c8.6-12.7,25.9-19.6,45.1-17.9l0.3,0c46.2,10.1,77.3,39.3,77.3,72.7c0,17.5-8.8,34.6-24.8,48.1
				C184.3,151,162.6,160.3,138.7,164.1z M141.4,21c-15.5,0-29,6-35.9,16.3c-9.3,13.9,11.3,30.8,29.5,45.6c4.5,3.7,8.8,7.2,12.5,10.6
				c17.4,15.7,21.7,32.5,12.6,49.7c-2.9,5.5-7,10.5-12.3,14.8c19.3-4.4,36.6-12.5,49.4-23.4c15.2-12.9,23.3-28.4,23.3-44.9
				c0-31.4-29.7-58.9-73.8-68.6C144.8,21.1,143.1,21,141.4,21z"/>
		</g>
		<g>
			<linearGradient id="SVGID_3_" gradientUnits="userSpaceOnUse" x1="7.2169" y1="74.0069" x2="136.2709" y2="96.7626">
				<stop  offset="0" style="stop-color:#00448A"/>
				<stop  offset="1" style="stop-color:#001145"/>
			</linearGradient>
			<path class="st2" d="M90.3,84.8C76.1,73.5,65.7,59.3,77.2,37.7c4.8-9,11.8-16.1,20.7-21.2C45.4,21.7,5.2,52.6,5.2,89.8
				c0,35.1,35.7,64.4,83.6,72.1c17.3-0.4,30.7-7,38.2-21C139.3,117.9,114.1,103.9,90.3,84.8z"/>
			<path class="st1" d="M88.7,164l-0.2,0c-50.3-8.1-85.4-38.6-85.4-74.2c0-18.5,9.7-36.4,27.5-50.3c17.3-13.6,41.1-22.5,67-25.1
				l1.3,3.9C90.2,23.3,83.5,30.2,79,38.7C67.7,60,79,73.2,91.6,83.2l0,0c3.4,2.7,6.8,5.3,10,7.8c19.8,15.2,38.5,29.6,27.2,50.9
				c-7.5,14.1-21.3,21.7-40,22.1L88.7,164z M89.4,19.6C67.7,23.1,48,31.2,33.2,42.8C16.5,55.9,7.3,72.5,7.3,89.8
				c0,16.4,8,31.9,23.1,44.7C45.2,147.1,66,156.1,89,159.8c17.2-0.4,29.4-7.1,36.2-19.9c9.7-18.2-6.1-30.3-26-45.6
				c-3.3-2.5-6.7-5.2-10.1-7.9c-8.8-7-14.2-13.5-16.9-20.6c-3.5-9.1-2.4-18.6,3.2-29.2C78.8,30.1,83.6,24.4,89.4,19.6z"/>
		</g>
		<path class="st1" d="M94.4,175.8c-1.1,0-2-0.9-2-2c0-1.1,0.9-2,2-2.1c26.7-0.5,44.8-12.5,45-12.6c0.9-0.6,2.2-0.4,2.8,0.5
			c0.6,0.9,0.4,2.2-0.5,2.8C140.9,163,122.4,175.3,94.4,175.8C94.5,175.8,94.5,175.8,94.4,175.8z"/>
		<path class="st1" d="M96.5,19.3c-0.6,0-1.2-0.3-1.6-0.8c-0.7-0.9-0.5-2.2,0.4-2.8c0.8-0.6,19.3-13.8,47.5-11.8
			c1.1,0.1,2,1,1.9,2.2c-0.1,1.1-1,2-2.2,1.9c-26.8-1.9-44.7,10.9-44.9,11C97.3,19.2,96.9,19.3,96.5,19.3z"/>
	</g>
	<g>
		<g>
			<path class="st1" d="M310.7,87.4h-49l1.5-6.3c2.9,0.6,7,0.9,12.5,0.9h31.7c1.8,0,3.1-0.3,3.9-0.8c0.9-0.5,1.7-1.4,2.4-2.9
				l3.7-8.3c0.2-0.5,0.4-0.9,0.5-1.4c0.1-0.6,0-1.1-0.3-1.4c-0.2-0.5-1.4-0.8-3.3-0.8h-29.5c-5.5,0-9.2-0.7-11-2.2
				c-1.2-1-1.6-2.7-1-5.1c0.2-1.1,0.5-2,0.9-2.7l4.4-10c1.8-4.1,4.7-7,8.6-8.5c2.7-1.1,6.6-1.6,11.6-1.6h48.5l-1.3,6.2
				c-2.5-0.6-6.8-0.8-12.8-0.8h-31.2c-2.5,0-4.1,0.6-4.9,1.7c-0.3,0.4-0.7,1-1.2,2l-3,6.7c-0.2,0.5-0.4,1-0.5,1.6
				c-0.3,1.4,0.9,2,3.6,2h29.6c5.6,0,9.3,0.7,11.1,2.2c1.3,1.1,1.7,2.8,1.2,5.1c-0.1,0.5-0.2,0.9-0.4,1.5c-0.1,0.3-0.3,0.8-0.5,1.3
				l-5.2,11.7c-1.8,4.1-4.7,6.9-8.7,8.5C319.4,86.8,315.5,87.4,310.7,87.4L310.7,87.4z"/>
			<path class="st1" d="M380.6,101.5h-47.5l1.2-5.5l5,0.6l6.9,0.2h30.2c1.8,0,3.2-0.2,4.1-0.7c1.1-0.6,2.1-1.6,2.8-3.2l3.6-8.1
				l-1.5,1l-2.4,1.1c-0.8,0.3-1.8,0.5-3.2,0.5h-28.6c-7.9,0-11.3-2.4-10.2-7.1c0.2-0.7,0.4-1.4,0.7-2.2l9.7-22
				c0.7-1.5,1.1-2.8,1.3-3.8c0.1-0.4,0.2-0.9,0.3-1.5l0-1.2h16.3l-13.2,29.7c-0.2,0.5-0.4,0.9-0.4,1.2c-0.1,0.5,0,0.9,0.4,1.3
				c0.3,0.4,1.2,0.7,2.8,0.7h24.7c2.5,0,4.4-1,5.5-3.1l10.3-23.3l1.3-3.4c0.1-0.4,0.2-0.7,0.3-1l0.2-1c0.1-0.3,0.1-0.7-0.1-1h16.4
				l-18.4,41.7c-1.5,3.5-3.9,6.1-6.9,7.8C389.3,100.7,385.5,101.5,380.6,101.5L380.6,101.5z"/>
			<path class="st1" d="M476.7,87.4h-17.2l2.3-3.5L464,79l9.4-21.2c0.3-0.6,0.5-1,0.5-1.2c0.3-1.5-0.7-2.2-3.2-2.2h-24.5
				c-1.7,0-2.9,0.2-3.7,0.7c-0.9,0.6-1.6,1.5-2.2,2.7L431,79.1c-1.1,2.4-1.8,4.4-2.2,6.2c-0.2,0.8-0.2,1.5-0.2,2.1h-17.4l1.4-1.9
				c0.3-0.4,0.6-0.9,1-1.6l2.3-4.8l9.5-21.2l1.8-4.8c0.2-0.4,0.3-0.8,0.4-1.2c0-0.1,0.1-0.4,0.1-0.8l0.2-1.4h15.7l-1.3,3.4
				c1.9-1.4,3.3-2.3,4.5-2.7c1.1-0.4,2.3-0.7,3.6-0.7h27.8c4.9,0,8.2,0.8,9.8,2.3c1.1,1.1,1.5,2.8,0.9,5.1c-0.1,0.4-0.2,0.8-0.4,1.3
				c-0.1,0.3-0.3,0.7-0.5,1.3l-8.6,19.5l-1.9,4.9c0,0-0.1,0.3-0.3,0.8c-0.2,0.5-0.3,0.9-0.3,1.1L476.7,87.4L476.7,87.4z"/>
			<path class="st1" d="M543.8,66.6l4-8.7c0.2-0.5,0.4-0.9,0.5-1.3c0.3-1.4-0.8-2.1-3.5-2.1h-25.1c-1.5,0-2.7,0.2-3.7,0.7
				c-0.6,0.3-1.3,1.2-2.1,2.7l-3.9,8.7H543.8L543.8,66.6z M552.1,81.8l-3.9,5.5h-48.6c-3.6,0-6.2-0.3-7.7-1c-2.4-1.1-3.3-3.1-2.6-6
				l0.4-1.7c0.2-0.3,0.4-0.8,0.6-1.2l7.8-17.7c1.7-3.8,4.2-6.5,7.6-8.1c2.7-1.3,6.2-1.9,10.6-1.9h36c5,0,8.3,0.8,9.8,2.3
				c1.1,1.1,1.3,2.7,0.8,5c-0.2,1-0.5,1.9-0.9,2.7l-5.3,11.8h-48.9l-3.4,7.6c-0.2,0.5-0.4,1-0.5,1.4c-0.3,1.4,0.8,2.1,3.3,2.1h35.5
				C546.5,82.6,549.6,82.3,552.1,81.8L552.1,81.8z"/>
			<path class="st1" d="M612.9,56.4L607,56l-5.5-0.2h-7.9c-1.6,0-2.8,0.2-3.6,0.6c-1,0.5-1.7,1.3-2.2,2.5l-8.9,20.1
				c-1.2,2.6-2,4.8-2.4,6.6l-0.2,0.9c0,0.4,0,0.7,0,0.8h-17.3l1.3-1.9c0.3-0.4,0.6-0.9,1-1.6l2.4-4.8l9.5-21.2l1.8-4.8
				c0.2-0.4,0.3-0.8,0.4-1.2c0-0.1,0.1-0.4,0.1-0.8l0.2-1.4h14.6l-1,3.8c2.1-2.6,5.5-3.8,10.4-3.8H614l3,4.1
				c-0.7,0.5-1.8,1.3-3.2,2.3L612.9,56.4L612.9,56.4z"/>
			<path class="st1" d="M658.7,79l9.5-21.2c0.2-0.5,0.4-0.9,0.5-1.3c0.3-1.4-0.8-2.1-3.3-2.1h-24.5c-1.5,0-2.8,0.2-3.7,0.7
				c-0.6,0.3-1.3,1.2-2.1,2.7L625.6,79c-0.2,0.5-0.4,1-0.5,1.4c-0.3,1.4,0.8,2.1,3.4,2.1H653c1.6,0,2.7-0.2,3.4-0.6
				C657.3,81.5,658,80.5,658.7,79L658.7,79z M683.4,57.9l-14.9,33.4c-1.7,3.9-4.3,6.6-7.6,8.2c-2.7,1.3-6.3,1.9-10.7,1.9h-47.3
				l1.5-5.5l2.7,0.4l2,0.1l7.1,0.2h29.7c1.8,0,3.1-0.2,4-0.7c1.1-0.6,2-1.7,2.7-3.2l3.8-8.6l-1.8,1.2l-1.7,1l-1.7,0.7
				c-0.8,0.2-2.2,0.2-4.1,0.2h-26.4c-3.6,0-6.2-0.3-7.7-1c-2.4-1.1-3.3-3.1-2.6-6l0.4-1.7c0.2-0.3,0.4-0.8,0.6-1.2l7.8-17.7
				c1.7-3.8,4.2-6.5,7.6-8.1c2.7-1.3,6.2-1.9,10.6-1.9h27.2c3.8,0,5.6,1.2,5.3,3.5l2.7-3.5h15.4l-2.4,3.4L683.4,57.9L683.4,57.9z"/>
			<path class="st1" d="M724.3,101.5h-47.5l1.2-5.5l5,0.6l6.9,0.2H720c1.8,0,3.2-0.2,4.1-0.7c1.1-0.6,2.1-1.6,2.8-3.2l3.6-8.1
				l-1.5,1l-2.4,1.1c-0.8,0.3-1.9,0.5-3.2,0.5h-28.6c-7.9,0-11.3-2.4-10.2-7.1c0.2-0.7,0.4-1.4,0.7-2.2l9.7-22
				c0.7-1.5,1.1-2.8,1.3-3.8c0.1-0.4,0.2-0.9,0.3-1.5l0-1.2H713l-13.2,29.7c-0.2,0.5-0.3,0.9-0.4,1.2c-0.1,0.5,0,0.9,0.4,1.3
				c0.3,0.4,1.2,0.7,2.8,0.7h24.8c2.5,0,4.4-1,5.5-3.1l10.3-23.3l1.3-3.4c0.1-0.4,0.2-0.7,0.3-1l0.2-1c0.1-0.3,0.1-0.7-0.1-1h16.4
				l-18.4,41.7c-1.6,3.5-3.9,6.1-6.9,7.8C733,100.7,729.2,101.5,724.3,101.5L724.3,101.5z"/>
		</g>
		<g>
			<path class="st3" d="M269.7,131c0-6.8,5.4-12.4,12.3-12.4c3.8,0,7.1,1.7,9.3,4.3l-2.7,2.1c-1.5-1.9-3.9-3.1-6.6-3.1
				c-4.9,0-8.7,4-8.7,9c0,4.9,3.7,9,8.7,9c2.7,0,5-1.2,6.6-3.1l2.7,2.1c-2.1,2.7-5.5,4.3-9.3,4.3C275.1,143.4,269.7,137.8,269.7,131
				z"/>
			<path class="st3" d="M313.3,131c0-6.9,5.3-12.4,12.2-12.4c6.9,0,12.3,5.5,12.3,12.4c0,6.8-5.4,12.4-12.3,12.4
				C318.7,143.4,313.3,137.8,313.3,131z M334.2,131c0-5-3.7-9-8.6-9c-4.9,0-8.6,4.1-8.6,9c0,4.9,3.7,9,8.6,9
				C330.5,140,334.2,135.9,334.2,131z"/>
			<path class="st3" d="M379.9,118.9V143h-3.4L366,125.4V143h-3.6v-24.1h3.5l10.4,17.4v-17.4H379.9z"/>
			<path class="st3" d="M404.7,136h3.6c0.1,2.1,2,4.1,5,4.1c2.9,0,4.6-1.8,4.6-3.7c0-2.1-1.9-3.2-3.9-3.7l-3.1-0.8
				c-5.1-1.3-6-4.3-6-6.3c0-4.2,3.7-6.9,8-6.9c4.3,0,7.7,2.7,7.7,7.1h-3.6c0-2.3-1.8-3.8-4.3-3.8c-2.3,0-4.3,1.4-4.3,3.6
				c0,0.8,0.2,2.4,3.3,3.2l3,0.8c4.1,1,6.6,3.2,6.6,6.8c0,4-3.3,7.2-8.2,7.2C408.1,143.4,404.7,139.9,404.7,136z"/>
			<path class="st3" d="M461,122.2h-7.2V143h-3.6v-20.8H443v-3.3h18V122.2z"/>
			<path class="st3" d="M491,134h-2.8v9h-3.6v-24.1h9.2c5.3,0,7.4,3.8,7.4,7.6c0,3.5-1.8,6.9-6.2,7.4l6.4,9.1h-4.3L491,134z
				 M488.3,130.9h4.7c3.3,0,4.7-1.8,4.7-4.3c0-2.5-1.5-4.3-3.8-4.3h-5.6V130.9z"/>
			<path class="st3" d="M525.9,134.6v-15.8h3.6v15.7c0,3.7,2.5,5.3,5.3,5.3s5.3-1.6,5.3-5.3v-15.7h3.6v15.8c0,5.5-4.1,8.7-8.9,8.7
				S525.9,140.2,525.9,134.6z"/>
			<path class="st3" d="M568,131c0-6.8,5.4-12.4,12.3-12.4c3.8,0,7.1,1.7,9.3,4.3l-2.7,2.1c-1.5-1.9-3.9-3.1-6.6-3.1
				c-4.9,0-8.7,4-8.7,9c0,4.9,3.7,9,8.7,9c2.7,0,5-1.2,6.6-3.1l2.7,2.1c-2.1,2.7-5.5,4.3-9.3,4.3C573.5,143.4,568,137.8,568,131z"/>
			<path class="st3" d="M629,122.2h-7.2V143h-3.6v-20.8h-7.2v-3.3h18V122.2z"/>
			<path class="st3" d="M652.7,118.9h3.6V143h-3.6V118.9z"/>
			<path class="st3" d="M681,131c0-6.9,5.3-12.4,12.2-12.4c6.9,0,12.3,5.5,12.3,12.4c0,6.8-5.4,12.4-12.3,12.4
				C686.3,143.4,681,137.8,681,131z M701.8,131c0-5-3.7-9-8.6-9c-4.9,0-8.6,4.1-8.6,9c0,4.9,3.7,9,8.6,9
				C698.1,140,701.8,135.9,701.8,131z"/>
			<path class="st3" d="M747.6,118.9V143h-3.4l-10.5-17.6V143h-3.6v-24.1h3.5l10.4,17.4v-17.4H747.6z"/>
		</g>
	</g>
</g>
<rect x="179.4" y="786.1" style="fill:none;" width="1126.5" height="228.9"/>
<text transform="matrix(1 0 0 0.63 179.3828 862.8682)"><tspan x="0" y="0" style="fill:#7A7C7D; font-family:'SerpentineSansICGOblique'; font-size:120px; letter-spacing:-3;">SCG </tspan><tspan x="0" y="95.2" style="fill:#7A7C7D; font-family:'SerpentineSansICGOblique'; font-size:120px; letter-spacing:-3;">Development</tspan></text>
</svg>
